<?xml version="1.0" encoding="UTF-8" standalone="no"?>
<svg
   xmlns:dc="http://purl.org/dc/elements/1.1/"
   xmlns:cc="http://creativecommons.org/ns#"
   xmlns:rdf="http://www.w3.org/1999/02/22-rdf-syntax-ns#"
   xmlns:svg="http://www.w3.org/2000/svg"
   xmlns="http://www.w3.org/2000/svg"
   xmlns:xlink="http://www.w3.org/1999/xlink"
   id="svg5762"
   version="1.1"
   viewBox="0 0 120.67434 23.651798"
   height="23.651798mm"
   width="120.67434mm">
  <defs
     id="defs5756">
    <linearGradient
       spreadMethod="pad"
       y2="0"
       x2="1"
       y1="0"
       x1="0"
       gradientTransform="matrix(176.99751,0,0,-176.99751,205.4305,664.45471)"
       gradientUnits="userSpaceOnUse"
       id="linearGradient4599"
       xlink:href="#linearGradient3832" />
    <linearGradient
       x1="0"
       y1="0"
       x2="1"
       y2="0"
       gradientUnits="userSpaceOnUse"
       gradientTransform="matrix(176.99751,0,0,-176.99751,205.4305,664.45471)"
       spreadMethod="pad"
       id="linearGradient3832">
      <stop
         style="stop-opacity:1;stop-color:#09aee9"
         offset="0"
         id="stop3828" />
      <stop
         style="stop-opacity:1;stop-color:#2bf597"
         offset="1"
         id="stop3830" />
    </linearGradient>
    <linearGradient
       spreadMethod="pad"
       y2="0"
       x2="1"
       y1="0"
       x1="0"
       gradientTransform="matrix(176.99751,0,0,-176.99751,205.4305,662.93182)"
       gradientUnits="userSpaceOnUse"
       id="linearGradient4601"
       xlink:href="#linearGradient3852" />
    <linearGradient
       x1="0"
       y1="0"
       x2="1"
       y2="0"
       gradientUnits="userSpaceOnUse"
       gradientTransform="matrix(176.99751,0,0,-176.99751,205.4305,662.93182)"
       spreadMethod="pad"
       id="linearGradient3852">
      <stop
         style="stop-opacity:1;stop-color:#09aee9"
         offset="0"
         id="stop3848" />
      <stop
         style="stop-opacity:1;stop-color:#2bf597"
         offset="1"
         id="stop3850" />
    </linearGradient>
    <linearGradient
       x1="0"
       y1="0"
       x2="1"
       y2="0"
       gradientUnits="userSpaceOnUse"
       gradientTransform="matrix(176.99751,0,0,-176.99751,205.4305,662.96478)"
       spreadMethod="pad"
       id="linearGradient3872">
      <stop
         style="stop-opacity:1;stop-color:#09aee9"
         offset="0"
         id="stop3868" />
      <stop
         style="stop-opacity:1;stop-color:#2bf597"
         offset="1"
         id="stop3870" />
    </linearGradient>
    <linearGradient
       spreadMethod="pad"
       y2="0"
       x2="1"
       y1="0"
       x1="0"
       gradientTransform="matrix(176.99751,0,0,-176.99751,205.4305,663.06403)"
       gradientUnits="userSpaceOnUse"
       id="linearGradient4605"
       xlink:href="#linearGradient3912" />
    <linearGradient
       x1="0"
       y1="0"
       x2="1"
       y2="0"
       gradientUnits="userSpaceOnUse"
       gradientTransform="matrix(176.99751,0,0,-176.99751,205.4305,663.06403)"
       spreadMethod="pad"
       id="linearGradient3912">
      <stop
         style="stop-opacity:1;stop-color:#09aee9"
         offset="0"
         id="stop3908" />
      <stop
         style="stop-opacity:1;stop-color:#2bf597"
         offset="1"
         id="stop3910" />
    </linearGradient>
    <linearGradient
       x1="0"
       y1="0"
       x2="1"
       y2="0"
       gradientUnits="userSpaceOnUse"
       gradientTransform="matrix(176.99751,0,0,-176.99751,205.4305,663.0473)"
       spreadMethod="pad"
       id="linearGradient3932">
      <stop
         style="stop-opacity:1;stop-color:#09aee9"
         offset="0"
         id="stop3928" />
      <stop
         style="stop-opacity:1;stop-color:#2bf597"
         offset="1"
         id="stop3930" />
    </linearGradient>
    <linearGradient
       x1="0"
       y1="0"
       x2="1"
       y2="0"
       gradientUnits="userSpaceOnUse"
       gradientTransform="matrix(176.99751,0,0,-176.99751,205.4305,663.0802)"
       spreadMethod="pad"
       id="linearGradient3992">
      <stop
         style="stop-opacity:1;stop-color:#09aee9"
         offset="0"
         id="stop3988" />
      <stop
         style="stop-opacity:1;stop-color:#2bf597"
         offset="1"
         id="stop3990" />
    </linearGradient>
    <linearGradient
       x1="0"
       y1="0"
       x2="1"
       y2="0"
       gradientUnits="userSpaceOnUse"
       gradientTransform="matrix(176.99751,0,0,-176.99751,205.4305,663.09644)"
       spreadMethod="pad"
       id="linearGradient4032">
      <stop
         style="stop-opacity:1;stop-color:#09aee9"
         offset="0"
         id="stop4028" />
      <stop
         style="stop-opacity:1;stop-color:#2bf597"
         offset="1"
         id="stop4030" />
    </linearGradient>
    <linearGradient
       spreadMethod="pad"
       y2="0"
       x2="1"
       y1="0"
       x1="0"
       gradientTransform="matrix(176.99751,0,0,-176.99751,205.4305,664.45471)"
       gradientUnits="userSpaceOnUse"
       id="linearGradient5944"
       xlink:href="#linearGradient3832" />
    <linearGradient
       spreadMethod="pad"
       y2="0"
       x2="1"
       y1="0"
       x1="0"
       gradientTransform="matrix(176.99751,0,0,-176.99751,205.4305,662.93182)"
       gradientUnits="userSpaceOnUse"
       id="linearGradient5946"
       xlink:href="#linearGradient3852" />
    <linearGradient
       spreadMethod="pad"
       y2="0"
       x2="1"
       y1="0"
       x1="0"
       gradientTransform="matrix(176.99751,0,0,-176.99751,205.4305,663.06403)"
       gradientUnits="userSpaceOnUse"
       id="linearGradient5948"
       xlink:href="#linearGradient3912" />
    <linearGradient
       spreadMethod="pad"
       y2="0"
       x2="1"
       y1="0"
       x1="0"
       gradientTransform="matrix(176.99751,0,0,-176.99751,205.4305,663.06403)"
       gradientUnits="userSpaceOnUse"
       id="linearGradient5950"
       xlink:href="#linearGradient3912" />
  </defs>
  <metadata
     id="metadata5759">
    <rdf:RDF>
      <cc:Work
         rdf:about="">
        <dc:format>image/svg+xml</dc:format>
        <dc:type
           rdf:resource="http://purl.org/dc/dcmitype/StillImage" />
        <dc:title></dc:title>
      </cc:Work>
    </rdf:RDF>
  </metadata>
  <g
     transform="translate(3.6407411,-121.13243)"
     id="layer1">
    <g
       id="g4877"
       transform="translate(-49.136724,82.579393)">
      <g
         id="g3816"
         transform="matrix(0.35277777,0,0,-0.35277777,0.83255333,284.78381)">
        <g
           id="g3818">
          <g
             id="g3824">
            <g
               id="g3826">
              <path
                 d="m 135.981,697.158 c -6.042,-9.541 -9.376,-20.699 -9.376,-32.747 v 0 c 0,-12.05 3.334,-23.208 9.376,-32.747 v 0 c 0.561,-0.958 1.485,-0.859 2.245,-0.364 v 0 l 4.72,3.169 c 0.693,0.495 0.859,1.354 0.363,2.048 v 0 c -5.315,8.417 -7.89,17.759 -7.89,27.894 v 0 c 0,10.001 2.575,19.41 7.89,27.861 v 0 c 0.43,0.627 0.496,1.387 -0.034,1.749 v 0 l -5.215,3.631 c -0.231,0.17 -0.534,0.325 -0.868,0.325 v 0 c -0.383,0 -0.806,-0.203 -1.211,-0.819"
                 style="fill:url(#linearGradient5944);stroke:none"
                 id="path3834" />
            </g>
          </g>
        </g>
      </g>
      <g
         id="g3836"
         transform="matrix(0.35277777,0,0,-0.35277777,0.83255333,284.78381)">
        <g
           id="g3838">
          <g
             id="g3844">
            <g
               id="g3846">
              <path
                 d="m 148.507,662.899 c 0,-9.375 7.659,-16.968 16.935,-16.968 v 0 c 3.433,0 6.635,1.122 9.804,3.203 v 0 c 0.792,0.527 1.584,1.22 1.024,2.244 v 0 l -2.707,4.654 c -0.495,0.891 -1.518,0.792 -2.145,0.265 v 0 c -1.552,-1.221 -3.698,-1.948 -5.943,-1.948 v 0 c -4.852,0 -8.252,3.73 -8.252,8.583 v 0 c 0,4.852 3.4,8.582 8.252,8.582 v 0 c 2.245,0 4.391,-0.726 5.943,-1.947 v 0 c 0.627,-0.528 1.65,-0.628 2.145,0.264 v 0 l 2.707,4.655 c 0.56,1.022 -0.232,1.716 -1.024,2.245 v 0 c -3.169,2.08 -6.371,3.202 -9.804,3.202 v 0 c -9.276,0 -16.935,-7.659 -16.935,-17.034"
                 style="fill:url(#linearGradient5946);stroke:none"
                 id="path3854" />
            </g>
          </g>
        </g>
      </g>
      <g
         id="g3856"
         transform="matrix(0.35277777,0,0,-0.35277777,0.83255333,284.78381)">
        <g
           id="g3858">
          <g
             id="g3864">
            <g
               id="g3866">
              <path
                 d="m 182.537,662.965 c 0,-9.375 7.13,-16.803 16.571,-16.803 v 0 c 9.507,0 16.572,7.428 16.572,16.803 v 0 c 0,9.375 -7.065,16.802 -16.572,16.802 v 0 c -9.474,0 -16.571,-7.427 -16.571,-16.802 m 8.715,-0.033 c 0,4.852 3.003,8.781 7.922,8.781 v 0 c 4.885,0 7.889,-3.929 7.889,-8.781 v 0 c 0,-4.853 -3.069,-8.781 -7.889,-8.781 v 0 c -4.919,0 -7.922,3.928 -7.922,8.781"
                 style="fill:url(#linearGradient3872);stroke:none"
                 id="path3874" />
            </g>
          </g>
        </g>
      </g>
      <g
         id="g3876"
         transform="matrix(0.35277777,0,0,-0.35277777,0.83255333,284.78381)">
        <g
           id="g3878">
          <g
             id="g3884">
            <g
               id="g3886">
              <path
                 d="m 225.624,697.652 -5.216,-3.631 c -0.528,-0.362 -0.462,-1.122 -0.033,-1.749 v 0 c 5.314,-8.451 7.889,-17.86 7.889,-27.861 v 0 c 0,-10.135 -2.575,-19.477 -7.889,-27.894 v 0 c -0.495,-0.694 -0.33,-1.553 0.363,-2.048 v 0 l 4.721,-3.169 c 0.759,-0.495 1.683,-0.594 2.245,0.364 v 0 c 6.04,9.539 9.375,20.697 9.375,32.747 v 0 c 0,12.048 -3.335,23.206 -9.375,32.747 v 0 c -0.406,0.616 -0.83,0.819 -1.212,0.819 v 0 c -0.335,0 -0.637,-0.155 -0.868,-0.325"
                 style="fill:url(#linearGradient4599);stroke:none"
                 id="path3894" />
            </g>
          </g>
        </g>
      </g>
      <g
         id="g3896"
         transform="matrix(0.35277777,0,0,-0.35277777,0.83255333,284.78381)">
        <g
           id="g3898">
          <g
             id="g3904">
            <g
               id="g3906">
              <path
                 d="m 252.416,679.272 c -1.057,0 -1.651,-0.726 -1.651,-1.65 v 0 -29.149 c 0,-1.09 0.561,-1.617 1.651,-1.617 v 0 h 5.281 c 1.155,0 1.75,0.527 1.75,1.617 v 0 29.149 c 0,0.956 -0.99,1.65 -1.75,1.65 v 0 z"
                 style="fill:url(#linearGradient5948);stroke:none"
                 id="path3914" />
            </g>
          </g>
        </g>
      </g>
      <g
         id="g3916"
         transform="matrix(0.35277777,0,0,-0.35277777,0.83255333,284.78381)">
        <g
           id="g3918">
          <g
             id="g3924">
            <g
               id="g3926">
              <path
                 d="m 295.096,679.239 c -0.793,0 -1.323,-0.561 -1.323,-1.32 v 0 -5.91 l -14.787,6.669 c -0.363,0.231 -0.958,0.561 -1.717,0.561 v 0 h -5.678 c -0.759,0 -1.32,-0.561 -1.32,-1.32 v 0 -29.776 c 0,-0.859 0.428,-1.287 1.32,-1.287 v 0 h 5.942 c 0.957,0 1.453,0.428 1.453,1.287 v 0 21.424 l 14.787,-6.668 v -14.756 c 0,-0.859 0.431,-1.287 1.323,-1.287 v 0 h 6.007 c 0.957,0 1.419,0.428 1.419,1.287 v 0 29.776 c 0,0.824 -0.66,1.32 -1.419,1.32 v 0 z"
                 style="fill:url(#linearGradient3932);stroke:none"
                 id="path3934" />
            </g>
          </g>
        </g>
      </g>
      <g
         id="g3936"
         transform="matrix(0.35277777,0,0,-0.35277777,0.83255333,284.78381)">
        <g
           id="g3938">
          <g
             id="g3944">
            <g
               id="g3946">
              <path
                 d="m 309.548,662.899 c 0,-9.375 7.658,-16.968 16.934,-16.968 v 0 c 3.433,0 6.636,1.122 9.805,3.203 v 0 c 0.792,0.527 1.584,1.22 1.022,2.244 v 0 l -2.707,4.654 c -0.495,0.891 -1.518,0.792 -2.146,0.265 v 0 c -1.55,-1.221 -3.697,-1.948 -5.94,-1.948 v 0 c -4.853,0 -8.254,3.73 -8.254,8.583 v 0 c 0,4.852 3.401,8.582 8.254,8.582 v 0 c 2.243,0 4.39,-0.726 5.94,-1.947 v 0 c 0.628,-0.528 1.651,-0.628 2.146,0.264 v 0 l 2.707,4.655 c 0.562,1.022 -0.23,1.716 -1.022,2.245 v 0 c -3.169,2.08 -6.372,3.202 -9.805,3.202 v 0 c -9.276,0 -16.934,-7.659 -16.934,-17.034"
                 style="fill:url(#linearGradient4601);stroke:none"
                 id="path3954" />
            </g>
          </g>
        </g>
      </g>
      <g
         id="g3956"
         transform="matrix(0.35277777,0,0,-0.35277777,0.83255333,284.78381)">
        <g
           id="g3958">
          <g
             id="g3964">
            <g
               id="g3966">
              <path
                 d="m 347.966,679.272 c -1.057,0 -1.649,-0.726 -1.649,-1.65 v 0 -29.149 c 0,-1.09 0.56,-1.617 1.649,-1.617 v 0 h 5.282 c 1.156,0 1.751,0.527 1.751,1.617 v 0 29.149 c 0,0.956 -0.992,1.65 -1.751,1.65 v 0 z"
                 style="fill:url(#linearGradient5950);stroke:none"
                 id="path3974" />
            </g>
          </g>
        </g>
      </g>
      <g
         id="g3976"
         transform="matrix(0.35277777,0,0,-0.35277777,0.83255333,284.78381)">
        <g
           id="g3978">
          <g
             id="g3984">
            <g
               id="g3986">
              <path
                 d="m 367.076,679.305 c -0.891,0 -1.32,-0.429 -1.32,-1.32 v 0 -29.842 c 0,-0.825 0.363,-1.255 1.089,-1.287 v 0 h 11.984 c 8.846,0 15.449,7.46 15.449,16.273 v 0 c 0,8.947 -6.735,16.01 -15.648,16.176 v 0 z m 7.462,-8.054 h 3.135 c 4.753,0 7.89,-3.533 7.89,-8.122 v 0 c 0,-4.753 -3.038,-8.219 -7.725,-8.219 v 0 h -3.3 z"
                 style="fill:url(#linearGradient3992);stroke:none"
                 id="path3994" />
            </g>
          </g>
        </g>
      </g>
      <g
         id="g3996"
         transform="matrix(0.35277777,0,0,-0.35277777,0.83255333,284.78381)">
        <g
           id="g3998">
          <g
             id="g4004">
            <g
               id="g4006">
              <path
                 d="m 403.415,679.272 c -1.057,0 -1.649,-0.726 -1.649,-1.65 v 0 -29.149 c 0,-1.09 0.561,-1.617 1.649,-1.617 v 0 h 5.283 c 1.155,0 1.75,0.527 1.75,1.617 v 0 29.149 c 0,0.956 -0.991,1.65 -1.75,1.65 v 0 z"
                 style="fill:url(#linearGradient4605);stroke:none"
                 id="path4014" />
            </g>
          </g>
        </g>
      </g>
      <g
         id="g4016"
         transform="matrix(0.35277777,0,0,-0.35277777,0.83255333,284.78381)">
        <g
           id="g4018">
          <g
             id="g4024">
            <g
               id="g4026">
              <path
                 d="m 448.407,679.305 c -1.321,0 -1.882,-1.254 -2.312,-2.311 v 0 l -3.565,-9.837 -3.565,9.837 c -0.429,1.057 -1.023,2.311 -2.311,2.311 v 0 h -6.404 c -1.783,0 -2.475,-2.344 -3.005,-3.762 v 0 l -10.661,-26.344 h 0.032 c -0.099,-0.132 -0.23,-0.66 -0.23,-1.023 v 0 c 0,-0.858 0.527,-1.288 1.584,-1.288 v 0 h 5.745 c 1.056,0 1.683,0.594 2.046,1.519 v 0 l 7.658,19.015 4.655,-12.71 c 0.363,-0.957 1.09,-1.452 2.113,-1.452 v 0 h 4.918 c 0.76,0 1.42,0.56 1.815,1.452 v 0 l 4.688,12.775 7.693,-19.08 c 0.361,-0.925 0.956,-1.519 2.046,-1.519 v 0 h 5.743 c 1.057,0 1.584,0.43 1.584,1.288 v 0 c 0,0.363 -0.131,0.891 -0.23,1.023 v 0 h 0.033 l -10.663,26.344 c -0.296,0.692 -0.561,1.418 -0.924,2.046 v 0 c -0.429,0.891 -0.858,1.716 -2.08,1.716 v 0 z"
                 style="fill:url(#linearGradient4032);stroke:none"
                 id="path4034" />
            </g>
          </g>
        </g>
      </g>
    </g>
  </g>
</svg>
