<?xml version="1.0" encoding="UTF-8" standalone="no"?>
<svg
   xmlns:dc="http://purl.org/dc/elements/1.1/"
   xmlns:cc="http://creativecommons.org/ns#"
   xmlns:rdf="http://www.w3.org/1999/02/22-rdf-syntax-ns#"
   xmlns:svg="http://www.w3.org/2000/svg"
   xmlns="http://www.w3.org/2000/svg"
   id="svg5039"
   version="1.1"
   viewBox="0 0 19.824383 17.786575"
   height="17.786575mm"
   width="19.824383mm">
  <defs
     id="defs5033">
    <clipPath
       clipPathUnits="userSpaceOnUse"
       id="clipPath4314">
      <path
         d="M 0,841.89 H 595.28 V 0 H 0 Z"
         id="path4312" />
    </clipPath>
  </defs>
  <metadata
     id="metadata5036">
    <rdf:RDF>
      <cc:Work
         rdf:about="">
        <dc:format>image/svg+xml</dc:format>
        <dc:type
           rdf:resource="http://purl.org/dc/dcmitype/StillImage" />
        <dc:title></dc:title>
      </cc:Work>
    </rdf:RDF>
  </metadata>
  <g
     transform="translate(78.703857,-319.85671)"
     id="layer1">
    <g
       transform="matrix(0.35277777,0,0,-0.35277777,-97.146691,426.9167)"
       id="g4308">
      <g
         clip-path="url(#clipPath4314)"
         id="g4310">
        <g
           transform="translate(52.2789,286.4027)"
           id="g4316">
          <path
             id="path4318"
             style="fill:#ffffff;fill-opacity:1;fill-rule:nonzero;stroke:none"
             d="m 0,0 c 0,6.129 1.696,11.805 4.77,16.658 0.385,0.587 0.805,0.436 1.057,0.251 L 8.48,15.063 C 8.749,14.878 8.716,14.491 8.497,14.173 5.794,9.874 4.484,5.088 4.484,0 c 0,-5.155 1.31,-9.907 4.013,-14.188 0.252,-0.354 0.168,-0.79 -0.184,-1.041 L 5.911,-16.842 C 5.524,-17.094 5.055,-17.145 4.77,-16.657 1.696,-11.805 0,-6.129 0,0" />
        </g>
        <g
           transform="translate(72.0513,281.2855)"
           id="g4320">
          <path
             id="path4322"
             style="fill:#ffffff;fill-opacity:1;fill-rule:nonzero;stroke:none"
             d="m 0,0 c 1.142,0 2.233,0.369 3.022,0.99 0.32,0.269 0.84,0.32 1.092,-0.135 l 1.377,-2.367 c 0.285,-0.52 -0.118,-0.873 -0.52,-1.141 -1.613,-1.059 -3.242,-1.629 -4.988,-1.629 -4.718,0 -8.614,3.862 -8.614,8.631 0,4.768 3.896,8.664 8.614,8.664 1.746,0 3.375,-0.571 4.988,-1.629 0.402,-0.269 0.805,-0.621 0.52,-1.142 L 4.114,7.875 C 3.862,7.421 3.342,7.472 3.022,7.74 2.233,8.361 1.142,8.73 0,8.73 -2.469,8.73 -4.198,6.834 -4.198,4.365 -4.198,1.897 -2.469,0 0,0" />
        </g>
        <g
           transform="translate(89.1929,281.184)"
           id="g4324">
          <path
             id="path4326"
             style="fill:#ffffff;fill-opacity:1;fill-rule:nonzero;stroke:none"
             d="M 0,0 C 2.451,0 4.013,1.999 4.013,4.467 4.013,6.936 2.485,8.934 0,8.934 -2.502,8.934 -4.03,6.936 -4.03,4.467 -4.03,1.999 -2.502,0 0,0 m -0.033,13.03 c 4.836,0 8.429,-3.778 8.429,-8.547 0,-4.768 -3.593,-8.546 -8.429,-8.546 -4.803,0 -8.43,3.778 -8.43,8.546 0,4.769 3.61,8.547 8.43,8.547" />
        </g>
        <g
           transform="translate(102.563,269.5609)"
           id="g4328">
          <path
             id="path4330"
             style="fill:#ffffff;fill-opacity:1;fill-rule:nonzero;stroke:none"
             d="m 0,0 -2.401,1.612 c -0.353,0.252 -0.437,0.688 -0.185,1.041 2.703,4.282 4.014,9.034 4.014,14.189 0,5.088 -1.311,9.874 -4.014,14.173 -0.218,0.318 -0.252,0.705 0.017,0.889 l 2.653,1.847 C 0.336,33.936 0.756,34.087 1.142,33.5 4.215,28.646 5.911,22.971 5.911,16.842 5.911,10.713 4.215,5.037 1.142,0.185 0.856,-0.303 0.386,-0.252 0,0" />
        </g>
        <g
           transform="translate(54.0035,260.9799)"
           id="g4332">
          <path
             id="path4334"
             style="fill:#ffffff;fill-opacity:1;fill-rule:nonzero;stroke:none"
             d="m 0,0 c 0,0.231 0.148,0.413 0.412,0.413 h 1.32 C 1.922,0.413 2.17,0.239 2.17,0 V -7.286 C 2.17,-7.559 2.021,-7.69 1.732,-7.69 H 0.412 C 0.14,-7.69 0,-7.559 0,-7.286 Z" />
        </g>
        <g
           transform="translate(64.7544,261.0541)"
           id="g4336">
          <path
             id="path4338"
             style="fill:#ffffff;fill-opacity:1;fill-rule:nonzero;stroke:none"
             d="M 0,0 C 0,0.19 0.132,0.33 0.33,0.33 H 1.832 C 2.021,0.33 2.187,0.207 2.187,0 v -7.442 c 0,-0.215 -0.116,-0.323 -0.355,-0.323 H 0.33 C 0.107,-7.765 0,-7.657 0,-7.442 v 3.688 l -3.697,1.667 v -5.355 c 0,-0.215 -0.124,-0.323 -0.363,-0.323 h -1.485 c -0.224,0 -0.33,0.108 -0.33,0.323 V 0 c 0,0.19 0.14,0.33 0.33,0.33 h 1.419 c 0.189,0 0.338,-0.082 0.429,-0.14 L 0,-1.477 Z" />
        </g>
        <g
           transform="translate(72.938,255.1625)"
           id="g4340">
          <path
             id="path4342"
             style="fill:#ffffff;fill-opacity:1;fill-rule:nonzero;stroke:none"
             d="M 0,0 C 0.562,0 1.098,0.182 1.485,0.487 1.643,0.619 1.898,0.644 2.021,0.421 l 0.677,-1.163 c 0.141,-0.256 -0.057,-0.43 -0.256,-0.562 -0.792,-0.519 -1.591,-0.8 -2.45,-0.8 -2.319,0 -4.233,1.898 -4.233,4.242 0,2.343 1.914,4.258 4.233,4.258 0.859,0 1.658,-0.281 2.45,-0.801 C 2.641,5.463 2.839,5.29 2.698,5.034 L 2.021,3.87 C 1.898,3.647 1.643,3.672 1.485,3.805 1.098,4.109 0.562,4.291 0,4.291 -1.213,4.291 -2.063,3.358 -2.063,2.146 -2.063,0.933 -1.213,0 0,0" />
        </g>
        <g
           transform="translate(77.8882,260.9799)"
           id="g4344">
          <path
             id="path4346"
             style="fill:#ffffff;fill-opacity:1;fill-rule:nonzero;stroke:none"
             d="m 0,0 c 0,0.231 0.148,0.413 0.412,0.413 h 1.32 C 1.923,0.413 2.17,0.239 2.17,0 V -7.286 C 2.17,-7.559 2.021,-7.69 1.732,-7.69 H 0.412 C 0.14,-7.69 0,-7.559 0,-7.286 Z" />
        </g>
        <g
           transform="translate(84.9419,255.3031)"
           id="g4348">
          <path
             id="path4350"
             style="fill:#ffffff;fill-opacity:1;fill-rule:nonzero;stroke:none"
             d="m 0,0 h 0.825 c 1.172,0 1.932,0.866 1.932,2.055 0,1.146 -0.784,2.03 -1.973,2.03 H 0 Z M 1.023,6.098 C 3.251,6.057 4.935,4.291 4.935,2.055 c 0,-2.203 -1.651,-4.069 -3.862,-4.069 h -2.995 c -0.182,0.009 -0.272,0.116 -0.272,0.323 v 7.459 c 0,0.223 0.106,0.33 0.33,0.33 z" />
        </g>
        <g
           transform="translate(91.7486,260.9799)"
           id="g4352">
          <path
             id="path4354"
             style="fill:#ffffff;fill-opacity:1;fill-rule:nonzero;stroke:none"
             d="m 0,0 c 0,0.231 0.148,0.413 0.412,0.413 h 1.32 C 1.923,0.413 2.17,0.239 2.17,0 V -7.286 C 2.17,-7.559 2.021,-7.69 1.732,-7.69 H 0.412 C 0.141,-7.69 0,-7.559 0,-7.286 Z" />
        </g>
        <g
           transform="translate(103.0357,255.2533)"
           id="g4356">
          <path
             id="path4358"
             style="fill:#ffffff;fill-opacity:1;fill-rule:nonzero;stroke:none"
             d="m 0,0 c -0.099,-0.223 -0.264,-0.363 -0.454,-0.363 h -1.229 c -0.255,0 -0.437,0.124 -0.528,0.363 L -3.375,3.177 -5.289,-1.576 C -5.38,-1.807 -5.536,-1.955 -5.801,-1.955 h -1.435 c -0.265,0 -0.397,0.106 -0.397,0.321 0,0.091 0.033,0.223 0.058,0.256 h -0.008 l 2.665,6.585 c 0.132,0.355 0.306,0.94 0.751,0.94 h 1.601 c 0.322,0 0.47,-0.313 0.578,-0.577 l 0.89,-2.459 0.892,2.459 c 0.107,0.264 0.247,0.577 0.578,0.577 H 1.973 C 2.277,6.147 2.385,5.941 2.492,5.719 2.583,5.562 2.649,5.38 2.724,5.207 L 5.389,-1.378 H 5.38 c 0.025,-0.033 0.058,-0.165 0.058,-0.256 0,-0.215 -0.132,-0.321 -0.396,-0.321 H 3.606 c -0.272,0 -0.42,0.148 -0.511,0.379 L 1.172,3.193 Z" />
        </g>
      </g>
    </g>
  </g>
</svg>
