<?xml version="1.0" encoding="UTF-8" standalone="no"?>
<svg
   xmlns:dc="http://purl.org/dc/elements/1.1/"
   xmlns:cc="http://creativecommons.org/ns#"
   xmlns:rdf="http://www.w3.org/1999/02/22-rdf-syntax-ns#"
   xmlns:svg="http://www.w3.org/2000/svg"
   xmlns="http://www.w3.org/2000/svg"
   id="svg5762"
   version="1.1"
   viewBox="0 0 68.229477 13.372797"
   height="13.372797mm"
   width="68.229477mm">
  <defs
     id="defs5756">
    <linearGradient
       x1="0"
       y1="0"
       x2="1"
       y2="0"
       gradientUnits="userSpaceOnUse"
       gradientTransform="matrix(176.99751,0,0,-176.99751,205.4305,664.45471)"
       spreadMethod="pad"
       id="linearGradient3832">
      <stop
         style="stop-opacity:1;stop-color:#09aee9"
         offset="0"
         id="stop3828" />
      <stop
         style="stop-opacity:1;stop-color:#2bf597"
         offset="1"
         id="stop3830" />
    </linearGradient>
    <linearGradient
       x1="0"
       y1="0"
       x2="1"
       y2="0"
       gradientUnits="userSpaceOnUse"
       gradientTransform="matrix(176.99751,0,0,-176.99751,205.4305,662.93182)"
       spreadMethod="pad"
       id="linearGradient3852">
      <stop
         style="stop-opacity:1;stop-color:#09aee9"
         offset="0"
         id="stop3848" />
      <stop
         style="stop-opacity:1;stop-color:#2bf597"
         offset="1"
         id="stop3850" />
    </linearGradient>
    <linearGradient
       x1="0"
       y1="0"
       x2="1"
       y2="0"
       gradientUnits="userSpaceOnUse"
       gradientTransform="matrix(176.99751,0,0,-176.99751,205.4305,662.96478)"
       spreadMethod="pad"
       id="linearGradient3872">
      <stop
         style="stop-opacity:1;stop-color:#09aee9"
         offset="0"
         id="stop3868" />
      <stop
         style="stop-opacity:1;stop-color:#2bf597"
         offset="1"
         id="stop3870" />
    </linearGradient>
    <linearGradient
       x1="0"
       y1="0"
       x2="1"
       y2="0"
       gradientUnits="userSpaceOnUse"
       gradientTransform="matrix(176.99751,0,0,-176.99751,205.4305,663.06403)"
       spreadMethod="pad"
       id="linearGradient3912">
      <stop
         style="stop-opacity:1;stop-color:#09aee9"
         offset="0"
         id="stop3908" />
      <stop
         style="stop-opacity:1;stop-color:#2bf597"
         offset="1"
         id="stop3910" />
    </linearGradient>
    <linearGradient
       x1="0"
       y1="0"
       x2="1"
       y2="0"
       gradientUnits="userSpaceOnUse"
       gradientTransform="matrix(176.99751,0,0,-176.99751,205.4305,663.0473)"
       spreadMethod="pad"
       id="linearGradient3932">
      <stop
         style="stop-opacity:1;stop-color:#09aee9"
         offset="0"
         id="stop3928" />
      <stop
         style="stop-opacity:1;stop-color:#2bf597"
         offset="1"
         id="stop3930" />
    </linearGradient>
    <linearGradient
       x1="0"
       y1="0"
       x2="1"
       y2="0"
       gradientUnits="userSpaceOnUse"
       gradientTransform="matrix(176.99751,0,0,-176.99751,205.4305,663.0802)"
       spreadMethod="pad"
       id="linearGradient3992">
      <stop
         style="stop-opacity:1;stop-color:#09aee9"
         offset="0"
         id="stop3988" />
      <stop
         style="stop-opacity:1;stop-color:#2bf597"
         offset="1"
         id="stop3990" />
    </linearGradient>
    <linearGradient
       x1="0"
       y1="0"
       x2="1"
       y2="0"
       gradientUnits="userSpaceOnUse"
       gradientTransform="matrix(176.99751,0,0,-176.99751,205.4305,663.09644)"
       spreadMethod="pad"
       id="linearGradient4032">
      <stop
         style="stop-opacity:1;stop-color:#09aee9"
         offset="0"
         id="stop4028" />
      <stop
         style="stop-opacity:1;stop-color:#2bf597"
         offset="1"
         id="stop4030" />
    </linearGradient>
    <clipPath
       clipPathUnits="userSpaceOnUse"
       id="clipPath4042">
      <path
         d="M 0,841.89 H 595.28 V 0 H 0 Z"
         id="path4040" />
    </clipPath>
  </defs>
  <metadata
     id="metadata5759">
    <rdf:RDF>
      <cc:Work
         rdf:about="">
        <dc:format>image/svg+xml</dc:format>
        <dc:type
           rdf:resource="http://purl.org/dc/dcmitype/StillImage" />
        <dc:title></dc:title>
      </cc:Work>
    </rdf:RDF>
  </metadata>
  <g
     transform="translate(-217.00047,-251.49069)"
     id="layer1">
    <g
       transform="matrix(0.35277777,0,0,-0.35277777,199.71521,388.97517)"
       id="g4036">
      <g
         clip-path="url(#clipPath4042)"
         id="g4038">
        <g
           transform="translate(48.9976,370.7416)"
           id="g4044">
          <path
             id="path4046"
             style="fill:#ffffff;fill-opacity:1;fill-rule:nonzero;stroke:none"
             d="M 0,0 C 0,6.812 1.885,13.12 5.301,18.515 5.73,19.168 6.196,19 6.477,18.794 L 9.426,16.741 C 9.725,16.536 9.687,16.106 9.444,15.752 6.439,10.975 4.983,5.654 4.983,0 c 0,-5.73 1.456,-11.013 4.461,-15.771 0.281,-0.393 0.187,-0.878 -0.205,-1.158 l -2.67,-1.792 C 6.141,-19.001 5.618,-19.057 5.301,-18.516 1.885,-13.122 0,-6.812 0,0" />
        </g>
        <g
           transform="translate(70.9751,365.0521)"
           id="g4048">
          <path
             id="path4050"
             style="fill:#ffffff;fill-opacity:1;fill-rule:nonzero;stroke:none"
             d="M 0,0 C 1.269,0 2.482,0.411 3.359,1.102 3.714,1.399 4.292,1.456 4.572,0.952 L 6.103,-1.68 C 6.42,-2.258 5.973,-2.65 5.524,-2.949 3.732,-4.125 1.922,-4.76 -0.02,-4.76 c -5.244,0 -9.574,4.293 -9.574,9.594 0,5.301 4.33,9.631 9.574,9.631 1.942,0 3.752,-0.634 5.544,-1.811 0.449,-0.298 0.896,-0.69 0.579,-1.268 L 4.572,8.754 C 4.292,8.25 3.714,8.306 3.359,8.604 2.482,9.295 1.269,9.705 0,9.705 -2.744,9.705 -4.667,7.597 -4.667,4.853 -4.667,2.109 -2.744,0 0,0" />
        </g>
        <g
           transform="translate(90.0279,364.9398)"
           id="g4052">
          <path
             id="path4054"
             style="fill:#ffffff;fill-opacity:1;fill-rule:nonzero;stroke:none"
             d="M 0,0 C 2.725,0 4.461,2.222 4.461,4.965 4.461,7.709 2.763,9.93 0,9.93 -2.781,9.93 -4.479,7.709 -4.479,4.965 -4.479,2.222 -2.781,0 0,0 m -0.037,14.484 c 5.375,0 9.369,-4.2 9.369,-9.5 0,-5.3 -3.994,-9.501 -9.369,-9.501 -5.339,0 -9.37,4.201 -9.37,9.501 0,5.3 4.012,9.5 9.37,9.5" />
        </g>
        <g
           transform="translate(104.8892,352.0209)"
           id="g4056">
          <path
             id="path4058"
             style="fill:#ffffff;fill-opacity:1;fill-rule:nonzero;stroke:none"
             d="m 0,0 -2.669,1.792 c -0.393,0.279 -0.485,0.765 -0.205,1.157 3.005,4.759 4.46,10.041 4.46,15.772 0,5.654 -1.455,10.974 -4.46,15.752 -0.243,0.354 -0.28,0.784 0.019,0.989 l 2.948,2.053 C 0.373,37.721 0.84,37.889 1.27,37.235 4.685,31.841 6.569,25.532 6.569,18.721 6.569,11.908 4.685,5.599 1.27,0.205 0.952,-0.336 0.429,-0.28 0,0" />
        </g>
        <g
           transform="translate(119.1978,378.2103)"
           id="g4060">
          <path
             id="path4062"
             style="fill:#ffffff;fill-opacity:1;fill-rule:nonzero;stroke:none"
             d="M 0,0 C 0,0.523 0.336,0.934 0.933,0.934 H 3.919 C 4.349,0.934 4.908,0.541 4.908,0 v -16.48 c 0,-0.617 -0.336,-0.915 -0.989,-0.915 H 0.933 C 0.316,-17.395 0,-17.097 0,-16.48 Z" />
        </g>
        <g
           transform="translate(143.5152,378.3783)"
           id="g4064">
          <path
             id="path4066"
             style="fill:#ffffff;fill-opacity:1;fill-rule:nonzero;stroke:none"
             d="M 0,0 C 0,0.43 0.298,0.747 0.746,0.747 H 4.144 C 4.572,0.747 4.946,0.467 4.946,0 v -16.835 c 0,-0.485 -0.261,-0.727 -0.802,-0.727 H 0.746 C 0.242,-17.562 0,-17.32 0,-16.835 v 8.343 l -8.362,3.77 v -12.113 c 0,-0.485 -0.28,-0.727 -0.822,-0.727 h -3.359 c -0.504,0 -0.746,0.242 -0.746,0.727 V 0 c 0,0.43 0.317,0.747 0.746,0.747 h 3.21 c 0.43,0 0.766,-0.187 0.971,-0.317 L 0,-3.341 Z" />
        </g>
        <g
           transform="translate(162.0269,365.0521)"
           id="g4068">
          <path
             id="path4070"
             style="fill:#ffffff;fill-opacity:1;fill-rule:nonzero;stroke:none"
             d="M 0,0 C 1.269,0 2.481,0.411 3.359,1.102 3.714,1.399 4.292,1.456 4.572,0.952 L 6.103,-1.68 C 6.42,-2.258 5.972,-2.65 5.524,-2.949 3.732,-4.125 1.922,-4.76 -0.02,-4.76 c -5.244,0 -9.574,4.293 -9.574,9.594 0,5.301 4.33,9.631 9.574,9.631 1.942,0 3.752,-0.634 5.544,-1.811 0.448,-0.298 0.896,-0.69 0.579,-1.268 L 4.572,8.754 C 4.292,8.25 3.714,8.306 3.359,8.604 2.481,9.295 1.269,9.705 0,9.705 -2.744,9.705 -4.667,7.597 -4.667,4.853 -4.667,2.109 -2.744,0 0,0" />
        </g>
        <g
           transform="translate(173.2222,378.2103)"
           id="g4072">
          <path
             id="path4074"
             style="fill:#ffffff;fill-opacity:1;fill-rule:nonzero;stroke:none"
             d="M 0,0 C 0,0.523 0.336,0.934 0.933,0.934 H 3.919 C 4.349,0.934 4.908,0.541 4.908,0 v -16.48 c 0,-0.617 -0.336,-0.915 -0.989,-0.915 H 0.933 C 0.317,-17.395 0,-17.097 0,-16.48 Z" />
        </g>
        <g
           transform="translate(189.1783,365.3695)"
           id="g4076">
          <path
             id="path4078"
             style="fill:#ffffff;fill-opacity:1;fill-rule:nonzero;stroke:none"
             d="m 0,0 h 1.866 c 2.651,0 4.367,1.96 4.367,4.647 0,2.595 -1.773,4.592 -4.461,4.592 H 0 Z m 2.314,13.793 c 5.04,-0.094 8.847,-4.088 8.847,-9.146 0,-4.983 -3.732,-9.201 -8.734,-9.201 H -4.35 c -0.41,0.018 -0.615,0.261 -0.615,0.728 v 16.873 c 0,0.504 0.242,0.746 0.746,0.746 z" />
        </g>
        <g
           transform="translate(204.5728,378.2103)"
           id="g4080">
          <path
             id="path4082"
             style="fill:#ffffff;fill-opacity:1;fill-rule:nonzero;stroke:none"
             d="M 0,0 C 0,0.523 0.336,0.934 0.934,0.934 H 3.92 C 4.349,0.934 4.909,0.541 4.909,0 v -16.48 c 0,-0.617 -0.336,-0.915 -0.989,-0.915 H 0.934 C 0.317,-17.395 0,-17.097 0,-16.48 Z" />
        </g>
        <g
           transform="translate(230.104,365.2572)"
           id="g4084">
          <path
             id="path4086"
             style="fill:#ffffff;fill-opacity:1;fill-rule:nonzero;stroke:none"
             d="m 0,0 c -0.225,-0.504 -0.598,-0.821 -1.027,-0.821 h -2.781 c -0.578,0 -0.989,0.28 -1.194,0.821 l -2.632,7.187 -4.33,-10.751 c -0.205,-0.523 -0.559,-0.86 -1.157,-0.86 h -3.248 c -0.597,0 -0.896,0.243 -0.896,0.729 0,0.205 0.075,0.504 0.131,0.579 h -0.019 l 6.029,14.893 c 0.299,0.803 0.69,2.128 1.698,2.128 h 3.621 c 0.729,0 1.064,-0.709 1.307,-1.306 l 2.016,-5.562 2.015,5.562 c 0.242,0.597 0.56,1.306 1.307,1.306 h 3.621 c 0.69,0 0.933,-0.467 1.176,-0.97 0.205,-0.355 0.354,-0.766 0.522,-1.158 l 6.029,-14.893 h -0.019 c 0.056,-0.075 0.131,-0.374 0.131,-0.579 0,-0.486 -0.299,-0.729 -0.896,-0.729 H 8.156 c -0.616,0 -0.952,0.337 -1.157,0.86 L 2.65,7.224 Z" />
        </g>
      </g>
    </g>
  </g>
</svg>
